<svg xmlns="http://www.w3.org/2000/svg" width="96" height="96" viewBox="0 0 96 96"><g fill="none" fill-rule="evenodd"><path fill="#FEFEFE" d="M72.63 36.65l4.09-5.485a2.355 2.355 0 0 0 .202-2.489c-3.887-7.546-10.182-13.22-17.9-8.04-.254.171-.51.35-.766.538l-1.316-.302c-2.266-.288-5.058 3.627-5.407 4.948-.937 3.552 3.836 6.945 3.445 10.168"/><path stroke="#D3D3D3" stroke-linecap="round" stroke-linejoin="round" stroke-width="1.28" d="M72.63 36.65l4.09-5.485a2.355 2.355 0 0 0 .202-2.489c-3.887-7.546-10.182-13.22-17.9-8.04-.254.171-.51.35-.766.538l-1.316-.302c-2.266-.288-5.058 3.627-5.407 4.948-.937 3.552 3.836 6.945 3.445 10.168"/><path fill="#FEFEFE" d="M73.027 35.425c-1.219-4.925-5.263-8.846-7.546-10.732-1.127-.931-2.646-1.275-4.05-.85-2.71.82-6.705 3.415-6.705 11.582 0 4.268 2.382 8.584 4.132 11.18.89 1.32.379 3.113-1.069 3.791l-11.111 5.208c-2.145 1.139-1.334 4.383 1.096 4.383h32.204c2.43 0 3.242-3.244 1.097-4.383l-11.11-5.208c-1.448-.678-1.96-2.471-1.07-3.791 1.75-2.596 4.132-6.912 4.132-11.18"/><path stroke="#D3D3D3" stroke-linecap="round" stroke-linejoin="round" stroke-width="1.28" d="M73.027 35.425c-1.219-4.925-5.263-8.846-7.546-10.732-1.127-.931-2.646-1.275-4.05-.85-2.71.82-6.705 3.415-6.705 11.582 0 4.268 2.382 8.584 4.132 11.18.89 1.32.379 3.113-1.069 3.791l-11.111 5.208c-2.145 1.139-1.334 4.383 1.096 4.383h32.204c2.43 0 3.242-3.244 1.097-4.383l-11.11-5.208c-1.448-.678-1.96-2.471-1.07-3.791 1.75-2.596 4.132-6.912 4.132-11.18z"/><path fill="#FEFEFE" d="M44.456 33.816a1.26 1.26 0 0 0 .471-.267c.488-.448.493-1.18.01-1.634a1.228 1.228 0 0 0-.364-.233 1.26 1.26 0 0 0 .257-.176c.488-.449.493-1.18.01-1.633a1.257 1.257 0 0 0-.587-.307c.024-.019.051-.034.074-.055.488-.449.493-1.18.01-1.633a1.284 1.284 0 0 0-.844-.34 1.092 1.092 0 0 0-.064-1.55 1.303 1.303 0 0 0-1.143-.316 1.09 1.09 0 0 0-.173-1.413 1.312 1.312 0 0 0-1.427-.223c.19-.417.105-.919-.26-1.263a1.315 1.315 0 0 0-1.569-.151c.05-.342-.062-.7-.343-.965a1.311 1.311 0 0 0-1.722-.037 1.108 1.108 0 0 0-.349-.703 1.312 1.312 0 0 0-1.759-.01c-.04.037-.073.08-.107.122a1.142 1.142 0 0 0-.3-.478 1.312 1.312 0 0 0-1.76-.008c-.098.09-.171.193-.23.301a1.149 1.149 0 0 0-.215-.282 1.314 1.314 0 0 0-1.759-.01c-.16.148-.262.325-.32.514-.032-.04-.063-.082-.102-.12a1.312 1.312 0 0 0-1.758-.008 1.106 1.106 0 0 0-.363.751 1.31 1.31 0 0 0-1.735.009 1.101 1.101 0 0 0-.35 1.026 1.312 1.312 0 0 0-1.604.11 1.089 1.089 0 0 0-.234 1.33 1.313 1.313 0 0 0-1.506.169 1.093 1.093 0 0 0-.162 1.459 1.306 1.306 0 0 0-1.217.284 1.091 1.091 0 0 0-.067 1.567c-.327-.008-.659.1-.91.331a1.098 1.098 0 0 0-.011 1.634c.023.02.048.036.072.054a1.275 1.275 0 0 0-.636.312 1.097 1.097 0 0 0-.01 1.633c.07.067.15.122.232.168a1.276 1.276 0 0 0-.394.243 1.098 1.098 0 0 0-.01 1.634c.126.117.271.204.427.26a1.33 1.33 0 0 0-.185.14 1.098 1.098 0 0 0-.01 1.633c.187.174.42.281.661.322l-.013.01a1.098 1.098 0 0 0-.01 1.634c.257.24.601.352.94.337a1.091 1.091 0 0 0 .103 1.505c.34.32.83.411 1.26.285a1.09 1.09 0 0 0 .192 1.379c.484.453 1.27.457 1.76.01.016-.016.027-.033.041-.049 4.33 3.288 10.654 3.255 15.097-.085.014.014.023.03.039.044.483.454 1.27.458 1.759.01.42-.386.48-.978.183-1.426.444.162.967.08 1.328-.251a1.092 1.092 0 0 0 .1-1.533c.36.038.734-.066 1.012-.32.489-.449.493-1.18.01-1.634-.007-.007-.017-.012-.023-.019a1.27 1.27 0 0 0 .721-.32c.489-.448.494-1.18.012-1.633a1.272 1.272 0 0 0-.176-.135"/><path stroke="#D3D3D3" stroke-linecap="round" stroke-linejoin="round" stroke-width="1.28" d="M44.456 33.816a1.26 1.26 0 0 0 .471-.267c.488-.448.493-1.18.01-1.634a1.228 1.228 0 0 0-.364-.233 1.26 1.26 0 0 0 .257-.176c.488-.449.493-1.18.01-1.633a1.257 1.257 0 0 0-.587-.307c.024-.019.051-.034.074-.055.488-.449.493-1.18.01-1.633a1.284 1.284 0 0 0-.844-.34 1.092 1.092 0 0 0-.064-1.55 1.303 1.303 0 0 0-1.143-.316 1.09 1.09 0 0 0-.173-1.413 1.312 1.312 0 0 0-1.427-.223c.19-.417.105-.919-.26-1.263a1.315 1.315 0 0 0-1.569-.151c.05-.342-.062-.7-.343-.965a1.311 1.311 0 0 0-1.722-.037 1.108 1.108 0 0 0-.349-.703 1.312 1.312 0 0 0-1.759-.01c-.04.037-.073.08-.107.122a1.142 1.142 0 0 0-.3-.478 1.312 1.312 0 0 0-1.76-.008c-.098.09-.171.193-.23.301a1.149 1.149 0 0 0-.215-.282 1.314 1.314 0 0 0-1.759-.01c-.16.148-.262.325-.32.514-.032-.04-.063-.082-.102-.12a1.312 1.312 0 0 0-1.758-.008 1.106 1.106 0 0 0-.363.751 1.31 1.31 0 0 0-1.735.009 1.101 1.101 0 0 0-.35 1.026 1.312 1.312 0 0 0-1.604.11 1.089 1.089 0 0 0-.234 1.33 1.313 1.313 0 0 0-1.506.169 1.093 1.093 0 0 0-.162 1.459 1.306 1.306 0 0 0-1.217.284 1.091 1.091 0 0 0-.067 1.567c-.327-.008-.659.1-.91.331a1.098 1.098 0 0 0-.011 1.634c.023.02.048.036.072.054a1.275 1.275 0 0 0-.636.312 1.097 1.097 0 0 0-.01 1.633c.07.067.15.122.232.168a1.276 1.276 0 0 0-.394.243 1.098 1.098 0 0 0-.01 1.634c.126.117.271.204.427.26a1.33 1.33 0 0 0-.185.14 1.098 1.098 0 0 0-.01 1.633c.187.174.42.281.661.322l-.013.01a1.098 1.098 0 0 0-.01 1.634c.257.24.601.352.94.337a1.091 1.091 0 0 0 .103 1.505c.34.32.83.411 1.26.285a1.09 1.09 0 0 0 .192 1.379c.484.453 1.27.457 1.76.01.016-.016.027-.033.041-.049 4.33 3.288 10.654 3.255 15.097-.085.014.014.023.03.039.044.483.454 1.27.458 1.759.01.42-.386.48-.978.183-1.426.444.162.967.08 1.328-.251a1.092 1.092 0 0 0 .1-1.533c.36.038.734-.066 1.012-.32.489-.449.493-1.18.01-1.634-.007-.007-.017-.012-.023-.019a1.27 1.27 0 0 0 .721-.32c.489-.448.494-1.18.012-1.633a1.272 1.272 0 0 0-.176-.135z"/><path fill="#FEFEFE" d="M41.13 33.7c.083.746.103.882.103 1.75 0 4.252-2.366 8.553-4.114 11.153a2.604 2.604 0 0 0 1.051 3.818l11.112 5.206c2.144 1.14 1.333 4.383-1.097 4.383H15.98c-2.429 0-3.24-3.243-1.096-4.383l11.11-5.206a2.604 2.604 0 0 0 1.053-3.818c-1.75-2.6-4.114-6.901-4.114-11.154 0-2.416.351-4.34.915-5.88l11.582-1.833 4.125 5.856 1.575.107z"/><path stroke="#CDC1D9" stroke-width=".8" d="M41.13 33.7c.083.746.103.882.103 1.75 0 4.252-2.366 8.553-4.114 11.153a2.604 2.604 0 0 0 1.051 3.818l11.112 5.206c2.144 1.14 1.333 4.383-1.097 4.383H15.98c-2.429 0-3.24-3.243-1.096-4.383l11.11-5.206a2.604 2.604 0 0 0 1.053-3.818c-1.75-2.6-4.114-6.901-4.114-11.154 0-2.416.351-4.34.915-5.88l11.582-1.833 4.125 5.856 1.575.107z"/><path stroke="#D3D3D3" stroke-linecap="round" stroke-linejoin="round" stroke-width="1.28" d="M23.774 29.763c-.52 1.506-.842 3.372-.842 5.687 0 4.252 2.366 8.553 4.114 11.152a2.603 2.603 0 0 1-1.051 3.818l-11.111 5.207c-2.145 1.14-1.333 4.383 1.096 4.383h32.205c2.43 0 3.24-3.244 1.096-4.383l-11.11-5.207a2.604 2.604 0 0 1-1.053-3.818c1.75-2.599 4.115-6.9 4.115-11.152a20.97 20.97 0 0 0-.193-2.928"/><path stroke="#D3D3D3" stroke-linecap="round" stroke-linejoin="round" stroke-width="1.28" d="M23.093 28.115c-.093.279-.076.592.074.878a1.226 1.226 0 0 0 1.607.524c.322-.155.532-.436.611-.75.34.459.976.628 1.507.373a1.13 1.13 0 0 0 .61-.752c.34.459.977.63 1.508.374.322-.156.532-.436.61-.751.34.458.977.629 1.507.373.322-.155.532-.436.61-.751.34.459.976.63 1.507.373.322-.156.532-.436.61-.751.34.458.977.63 1.507.373.008-.003.014-.009.02-.012.017.04.029.08.049.12.24.455.742.692 1.232.63a1.12 1.12 0 0 0-.054 1.143c.239.454.742.69 1.232.63a1.12 1.12 0 0 0-.055 1.142c.24.455.742.692 1.232.63a1.119 1.119 0 0 0-.054 1.142c.3.575 1.02.81 1.607.527.266-.13.457-.342.56-.59"/><path fill="#FFF" d="M30.558 76.383c-2.77 0-3.695-3.697-1.25-4.996l12.666-5.935a2.968 2.968 0 0 0 1.199-4.352c-1.995-2.963-4.69-7.865-4.69-12.713 0-14.091 10.43-13.63 10.43-13.63s10.43-.461 10.43 13.63c0 4.848-2.697 9.75-4.69 12.713a2.968 2.968 0 0 0 1.2 4.352l12.664 5.935c2.445 1.299 1.52 4.996-1.25 4.996H30.558z"/><path stroke="#ACACAC" stroke-linecap="round" stroke-linejoin="round" stroke-width="1.28" d="M30.558 76.383c-2.77 0-3.695-3.697-1.25-4.996l12.666-5.935a2.968 2.968 0 0 0 1.199-4.352c-1.995-2.963-4.69-7.865-4.69-12.713 0-14.091 10.43-13.63 10.43-13.63s10.43-.461 10.43 13.63c0 4.848-2.697 9.75-4.69 12.713a2.968 2.968 0 0 0 1.2 4.352l12.664 5.935c2.445 1.299 1.52 4.996-1.25 4.996H30.558z"/><path fill="#FEFEFE" d="M54.429 36.491l.865-2.784a1.962 1.962 0 0 0-1.209-2.421c-3.147-1.17-9.849-2.983-13.942.811-5.492 5.092-5.757 14.132-8.947 13.343 0 0 .709 5.792 5.847 5.266 5.137-.527 6.604-14.562 17.386-14.215"/><path stroke="#ACACAC" stroke-linecap="round" stroke-linejoin="round" stroke-width="1.28" d="M54.429 36.491l.865-2.784a1.962 1.962 0 0 0-1.209-2.421c-3.147-1.17-9.849-2.983-13.942.811-5.492 5.092-5.757 14.132-8.947 13.343 0 0 .709 5.792 5.847 5.266 5.137-.527 6.604-14.562 17.386-14.215z"/></g></svg>