<svg xmlns="http://www.w3.org/2000/svg" xmlns:xlink="http://www.w3.org/1999/xlink" width="475" height="78" viewBox="0 0 475 78"><defs><path id="a" d="M241.363 57.445c.912 0 1.8-.146 2.666-.437a7.868 7.868 0 0 0 2.31-1.217 6.338 6.338 0 0 0 1.628-1.832c.41-.702.624-1.463.642-2.283h4.786c-.019 1.312-.36 2.566-1.026 3.76a10.801 10.801 0 0 1-2.666 3.144c-1.112.902-2.388 1.622-3.828 2.16s-2.944.807-4.512.807c-2.242 0-4.202-.401-5.879-1.203-1.677-.802-3.076-1.882-4.197-3.24-1.121-1.359-1.964-2.926-2.53-4.704a18.464 18.464 0 0 1-.847-5.619v-1.148c0-1.95.283-3.82.848-5.606s1.408-3.358 2.53-4.716c1.12-1.359 2.52-2.439 4.196-3.24 1.677-.803 3.637-1.204 5.88-1.204 1.75 0 3.358.278 4.825.834 1.468.556 2.735 1.313 3.801 2.27a10.27 10.27 0 0 1 2.502 3.404 9.986 9.986 0 0 1 .903 4.21h-4.786a6.161 6.161 0 0 0-.588-2.528 6.883 6.883 0 0 0-1.517-2.092 7.017 7.017 0 0 0-2.283-1.422 7.764 7.764 0 0 0-2.858-.52c-1.567 0-2.884.315-3.95.944a7.683 7.683 0 0 0-2.585 2.46 10.376 10.376 0 0 0-1.408 3.405 17.29 17.29 0 0 0-.424 3.8v1.15c0 1.294.141 2.574.424 3.841.282 1.267.747 2.406 1.394 3.418a7.557 7.557 0 0 0 2.57 2.461c1.067.629 2.393.943 3.98.943zm19.578-11.511c0-2.133.31-4.116.93-5.948.62-1.832 1.509-3.422 2.666-4.771a12.415 12.415 0 0 1 4.225-3.186c1.659-.774 3.527-1.162 5.605-1.162 2.097 0 3.979.388 5.647 1.162a12.387 12.387 0 0 1 4.238 3.186c1.158 1.349 2.046 2.94 2.666 4.771.62 1.832.93 3.815.93 5.948v.601c0 2.133-.31 4.11-.93 5.934-.62 1.823-1.508 3.409-2.666 4.758a12.264 12.264 0 0 1-4.225 3.171c-1.659.766-3.527 1.149-5.605 1.149-2.096 0-3.979-.383-5.647-1.149a12.23 12.23 0 0 1-4.238-3.171c-1.157-1.35-2.046-2.935-2.666-4.758-.62-1.823-.93-3.801-.93-5.934v-.601zm5.059.601c0 1.458.173 2.848.52 4.17.346 1.322.87 2.484 1.572 3.486a7.76 7.76 0 0 0 2.638 2.38c1.058.583 2.288.874 3.692.874 1.385 0 2.602-.291 3.65-.875a7.802 7.802 0 0 0 2.625-2.379c.702-1.002 1.226-2.164 1.573-3.486.346-1.322.52-2.712.52-4.17v-.601c0-1.44-.179-2.821-.534-4.143-.356-1.322-.884-2.484-1.586-3.486a7.939 7.939 0 0 0-2.625-2.393c-1.048-.592-2.274-.889-3.678-.889-1.403 0-2.625.297-3.664.89a7.985 7.985 0 0 0-2.611 2.392c-.702 1.002-1.226 2.164-1.572 3.486a16.276 16.276 0 0 0-.52 4.143v.601zm34.508-15.12l.355 4.374c1.076-1.531 2.397-2.73 3.965-3.596 1.568-.866 3.318-1.308 5.25-1.326 1.55 0 2.958.219 4.225.656a8.075 8.075 0 0 1 3.24 2.051c.893.93 1.581 2.11 2.064 3.541.483 1.431.725 3.131.725 5.1V61h-5.059V42.324c0-1.312-.145-2.424-.437-3.336-.292-.911-.725-1.65-1.299-2.215s-1.276-.975-2.105-1.23c-.83-.255-1.782-.383-2.858-.383-1.695 0-3.185.424-4.47 1.272a9.376 9.376 0 0 0-3.077 3.35V61h-5.058V31.414h4.539zM337.12 61V35.324h-8.148v-3.91h8.148v-2.078c0-1.896.278-3.56.834-4.99.556-1.431 1.34-2.63 2.352-3.596 1.011-.966 2.228-1.695 3.65-2.188 1.422-.492 3.008-.738 4.758-.738 1.203 0 2.374.1 3.514.301 1.139.2 2.31.456 3.513.766l-.601 4.183a19.651 19.651 0 0 0-2.612-.67 16.831 16.831 0 0 0-3.185-.287c-2.37.018-4.152.62-5.346 1.805s-1.791 2.99-1.791 5.414v2.078h11.402v3.91h-11.402V61h-5.086z"/></defs><g fill="none" fill-rule="evenodd"><path fill="#394351" d="M0 0h475v78H0z"/><path fill="#FFF" fill-rule="nonzero" d="M178.86 1.968A6.71 6.71 0 0 0 174.08 0H6.708A6.71 6.71 0 0 0 0 6.71v63.58A6.709 6.709 0 0 0 6.708 77H174.08a6.702 6.702 0 0 0 4.78-1.968l30.216-31.705c2.565-2.61 2.565-6.965 0-9.575L178.861 1.968zm-58.275 19.245a4.074 4.074 0 0 1 2.952-1.102c.69.01 1.366.193 1.966.53a4.203 4.203 0 0 1 1.536 1.437c.38.586.578 1.271.57 1.968a3.495 3.495 0 0 1-.57 1.969 4.215 4.215 0 0 1-1.536 1.416 4.187 4.187 0 0 1-4.091 0 3.95 3.95 0 0 1-1.497-1.416 3.6 3.6 0 0 1-.55-1.97 3.716 3.716 0 0 1 1.22-2.832zM42.496 53.918a13.01 13.01 0 0 1-4.7 5.117 12.692 12.692 0 0 1-13.243 0 13.015 13.015 0 0 1-4.683-5.117 16.24 16.24 0 0 1-1.712-7.557 15.232 15.232 0 0 1 1.752-7.26 13.477 13.477 0 0 1 4.742-5.176 12.274 12.274 0 0 1 13.083 0 13.467 13.467 0 0 1 4.741 5.176 15.209 15.209 0 0 1 1.752 7.26 16.236 16.236 0 0 1-1.732 7.557zM70.79 41.532c-1.633-2.412-4.376-4.087-7.399-3.888a6.257 6.257 0 0 0-3.659 1.142 7.856 7.856 0 0 0-2.675 3.089 11.412 11.412 0 0 0-.965 4.821 10.744 10.744 0 0 0 .965 4.467 6.962 6.962 0 0 0 2.537 3.011 6.693 6.693 0 0 0 3.718 1.062c1.01-.051 1.74-.129 2.19-.235.363-.087.854-.297 1.47-.63a9.843 9.843 0 0 0 3.345-2.775l3.816 4.407a14.014 14.014 0 0 1-4.976 3.68 14.603 14.603 0 0 1-5.904 1.18 13.77 13.77 0 0 1-7.082-1.828 13.001 13.001 0 0 1-4.919-5.137 15.35 15.35 0 0 1-1.771-7.38 15.545 15.545 0 0 1 1.771-7.398 13.292 13.292 0 0 1 4.919-5.234 13.607 13.607 0 0 1 7.2-1.968 14.818 14.818 0 0 1 6.335 1.377 11.101 11.101 0 0 1 4.644 3.936l-3.56 4.3zm32.797 18.486H81.944v-5.096h7.516V25.58h-7.103v-5.174H96.13v34.515h7.457v5.096zm29.628 0h-19.102v-5.274h6.591V37.9h-6.317v-5.273h12.828v22.118h5.903l.097 5.274zm32.268-31.997a13.762 13.762 0 0 0-3.03-2.223 6.457 6.457 0 0 0-2.814-.59 5.056 5.056 0 0 0-4.071 1.613 7.138 7.138 0 0 0-1.378 4.762v1.122h8.4v5.214h-8.36v22.1h-6.395V37.84h-5.903v-5.215h5.903v-1.141a12.348 12.348 0 0 1 1.515-6.298 10.133 10.133 0 0 1 4.093-3.935 12.015 12.015 0 0 1 5.705-1.358 12.396 12.396 0 0 1 9.09 3.818l-2.755 4.31zM36.79 41.501c.547 1.554.806 3.195.767 4.841a14.101 14.101 0 0 1-.767 4.82 7.29 7.29 0 0 1-2.223 3.267 5.272 5.272 0 0 1-3.404 1.162 5.136 5.136 0 0 1-3.345-1.142 7.256 7.256 0 0 1-2.242-3.187 14.468 14.468 0 0 1-.768-4.92 13.407 13.407 0 0 1 .787-4.821 7.008 7.008 0 0 1 2.203-3.13 5.232 5.232 0 0 1 3.384-1.003 5.49 5.49 0 0 1 3.404 1.083 6.837 6.837 0 0 1 2.204 3.03z"/><path fill="#FFF" fill-rule="nonzero" d="M370.905 1.968A6.697 6.697 0 0 0 366.131 0H177v77h189.131a6.688 6.688 0 0 0 4.774-1.968l30.174-31.705c2.561-2.61 2.561-6.965 0-9.575L370.905 1.968z" opacity=".2"/><g fill-rule="nonzero"><use fill="#000" xlink:href="#a"/><use fill="#FFF" xlink:href="#a"/></g><path fill="#FFF" fill-rule="nonzero" d="M475 73.64c0 1.856-1.435 3.36-3.207 3.36h-53.586c-1.77 0-3.207-1.504-3.207-3.36v-3.28c0-1.856 1.436-3.361 3.207-3.361h53.607c1.763.011 3.186 1.512 3.186 3.361v3.279z"/></g></svg>